<svg width="22" height="22" viewBox="0 0 22 22" fill="none" xmlns="http://www.w3.org/2000/svg">
<rect width="22" height="22" rx="11" fill="#0077B5"/>
<path d="M17.1073 16.1906C16.3854 16.1734 15.6807 16.1734 14.9589 16.1906C14.8042 16.1906 14.7698 16.1562 14.7698 16.0015C14.7698 14.7296 14.7698 13.4406 14.7698 12.1687C14.7698 11.8765 14.7526 11.5843 14.6667 11.3093C14.4089 10.4156 13.3776 10.089 12.6385 10.6906C12.2432 10.9999 12.0885 11.4296 12.0885 11.9452C12.0885 13.1484 12.0885 14.3515 12.0885 15.5546C12.0885 15.7093 12.0714 15.864 12.0885 16.0359C12.1057 16.1734 12.037 16.2077 11.9167 16.1906C11.1776 16.1906 10.4557 16.1906 9.71667 16.1906C9.57917 16.1906 9.5448 16.1562 9.5448 16.0187C9.56199 14.9359 9.56199 13.8531 9.56199 12.7531C9.56199 11.4124 9.56199 10.0718 9.5448 8.74837C9.5448 8.59368 9.57917 8.55931 9.71667 8.55931C10.4557 8.55931 11.1776 8.55931 11.9167 8.55931C12.0542 8.55931 12.0885 8.59368 12.0885 8.73118C12.0885 9.00618 12.0885 9.28118 12.0885 9.60775C12.1401 9.55618 12.1573 9.539 12.1745 9.52181C12.8448 8.54212 13.7901 8.26712 14.9073 8.439C16.1964 8.64525 17.0214 9.539 17.2276 10.914C17.2792 11.2406 17.2964 11.5671 17.2964 11.8937C17.2964 13.2687 17.2964 14.6265 17.2964 16.0015C17.2964 16.139 17.262 16.1906 17.1073 16.1906Z" fill="white"/>
<path d="M8.16975 12.375C8.16975 13.5781 8.16975 14.7812 8.16975 15.9843C8.16975 16.139 8.13538 16.1906 7.98069 16.1906C7.25881 16.1734 6.53694 16.1906 5.81506 16.1906C5.67756 16.1906 5.64319 16.1562 5.64319 16.0187C5.64319 13.5953 5.64319 11.1546 5.64319 8.7312C5.64319 8.61089 5.67756 8.55933 5.81506 8.55933C6.55413 8.55933 7.29319 8.55933 8.03225 8.55933C8.18694 8.55933 8.20413 8.61089 8.20413 8.74839C8.16975 9.95151 8.16975 11.1546 8.16975 12.375Z" fill="white"/>
<path d="M8.29012 6.56557C8.11824 7.25307 7.41356 7.64839 6.60574 7.51089C5.74637 7.37338 5.26512 6.5312 5.57449 5.7062C5.78074 5.19057 6.27918 4.8812 6.91512 4.89839C7.87762 4.8812 8.51356 5.65464 8.29012 6.56557Z" fill="white"/>
</svg>
