<svg width="204" height="183" viewBox="0 0 204 183" fill="none" xmlns="http://www.w3.org/2000/svg">
<path opacity="0.3" d="M181 103.512C181.019 115.879 177.813 128.037 171.699 138.787L171.222 138.652C158.211 135.088 143.684 147.206 142.443 156.871C139.814 159.5 127.462 159.563 109.264 159.5C91.1007 159.437 69.5 162 69.5 156.871C68.2483 147.206 56 138.635 47.2336 138.635C41.8573 129.111 38.738 118.48 38.1158 107.561C37.4936 96.6417 39.385 85.7254 43.6445 75.6519C47.9041 65.5784 54.4181 56.6164 62.6854 49.4555C70.9527 42.2946 80.7529 37.1257 91.3317 34.3466C101.911 31.5675 112.986 31.2523 123.706 33.4253C134.425 35.5983 144.504 40.2014 153.165 46.8806C161.826 53.5597 168.84 62.1368 173.665 71.9517C178.491 81.7667 181 92.5578 181 103.495V103.512Z" fill="url(#paint0_linear_1:1113)"/>
<path opacity="0.3" d="M177 78.4417C181.417 77.6725 187.55 77.6372 191.182 80.5851C197.794 85.9466 201.166 101.637 187.937 108.185C182.78 110.734 181.21 109.853 181.21 109.853" fill="url(#paint1_linear_1:1113)"/>
<path opacity="0.3" d="M172 144.5C178.8 145.7 184.5 152.667 186.5 156C182.667 156 174.7 157.7 173.5 164.5C172 173 147.5 183.5 147.5 174C147.5 156.471 163.5 143 172 144.5Z" fill="url(#paint2_linear_1:1113)"/>
<path opacity="0.3" d="M62.4999 153C46.4999 133.5 30.9999 142 24.9999 146.5C19.7999 149.525 20.8332 153.427 21.9999 155C25.6665 153.333 31.3841 145.385 39 153C48 162 47 173.5 45.5 175.5C44 177.5 78.4999 172.5 62.4999 153Z" fill="url(#paint3_linear_1:1113)"/>
<path d="M140.1 170.046C138.357 167.086 137.666 163.635 138.138 160.242C139.485 149.867 155.252 136.858 169.375 140.684L169.893 140.829C176.53 129.288 180.01 116.236 179.989 102.96V102.942C179.989 91.2007 177.265 79.6162 172.027 69.0796C166.789 58.543 159.177 49.3353 149.776 42.1651C140.374 34.9949 129.435 30.0533 117.799 27.7205C106.164 25.3878 94.142 25.7262 82.6594 28.7096C71.1767 31.693 60.5392 37.2419 51.5656 44.9293C42.5919 52.6167 35.5213 62.2377 30.8978 73.0518C26.2743 83.8659 24.2213 95.5849 24.8967 107.307C25.5721 119.029 28.9579 130.441 34.7935 140.666C48.953 136.858 64.6843 149.867 66.043 160.242C66.5001 163.536 65.8584 166.887 64.2152 169.786" stroke="#2C3863" stroke-width="9.9" stroke-miterlimit="10"/>
<path d="M175.151 78.5626C179.812 77.7733 186.283 77.7372 190.115 80.7619C197.091 86.263 200.649 102.363 186.691 109.081C181.25 111.696 179.593 110.792 179.593 110.792" stroke="#2C3863" stroke-width="9.9" stroke-miterlimit="10"/>
<path d="M29.5417 78.5626C24.8747 77.7733 18.4104 77.7372 14.5781 80.7619C7.59581 86.263 4.04376 102.363 17.9961 109.081C23.4429 111.696 25.1002 110.792 25.1002 110.792" stroke="#2C3863" stroke-width="9.9" stroke-miterlimit="10"/>
<path d="M73.8297 63.2225C73.8297 65.7907 73.0737 68.0954 71.8763 69.7458C70.6786 71.3966 69.0668 72.363 67.3352 72.363C65.6037 72.363 63.9919 71.3966 62.7941 69.7458C61.5968 68.0954 60.8408 65.7907 60.8408 63.2225C60.8408 60.6543 61.5968 58.3496 62.7941 56.6993C63.9919 55.0484 65.6037 54.082 67.3352 54.082C69.0668 54.082 70.6786 55.0484 71.8763 56.6993C73.0737 58.3496 73.8297 60.6543 73.8297 63.2225Z" fill="#2C3863" stroke="#2C3863"/>
<path d="M143.365 63.2225C143.365 65.7907 142.609 68.0954 141.412 69.7458C140.214 71.3966 138.602 72.363 136.871 72.363C135.139 72.363 133.528 71.3966 132.33 69.7458C131.132 68.0954 130.376 65.7907 130.376 63.2225C130.376 60.6543 131.132 58.3496 132.33 56.6993C133.528 55.0484 135.139 54.082 136.871 54.082C138.602 54.082 140.214 55.0484 141.412 56.6993C142.609 58.3496 143.365 60.6543 143.365 63.2225Z" fill="#2C3863" stroke="#2C3863"/>
<path opacity="0.5" d="M138 86.9944C138 90.8573 142.316 93.9889 147.641 93.9889C152.965 93.9889 157.281 90.8573 157.281 86.9944C157.281 83.1315 152.965 80 147.641 80C142.316 80 138 83.1315 138 86.9944Z" fill="#EB5757"/>
<path opacity="0.5" d="M48 86.9944C48 90.8573 52.3162 93.9889 57.6405 93.9889C62.9648 93.9889 67.281 90.8573 67.281 86.9944C67.281 83.1315 62.9648 80 57.6405 80C52.3162 80 48 83.1315 48 86.9944Z" fill="#EB5757"/>
<path d="M79.2036 82.0938C89.5 89.5 113.922 90.4207 124.625 82.0938" stroke="#2C3863" stroke-width="9" stroke-linecap="round" stroke-linejoin="round"/>
<path d="M198.297 160.242H188.123" stroke="#2C3863" stroke-width="11" stroke-linecap="round" stroke-linejoin="round"/>
<path d="M16.0469 160.242H6" stroke="#2C3863" stroke-width="11" stroke-linecap="round" stroke-linejoin="round"/>
<path d="M138.139 160.242H66.0317" stroke="#2C3863" stroke-width="11" stroke-linecap="round" stroke-linejoin="round"/>
<path d="M64.2156 169.786C61.218 175.058 54.9425 178.408 46.9245 177.269C34.6842 175.522 29.542 160.447 29.542 160.447L16.0527 160.242C16.0527 160.242 20.6649 144.51 34.7939 140.666C48.9229 136.822 64.6847 149.848 66.0312 160.224C66.4961 163.522 65.8586 166.88 64.2156 169.786V169.786Z" stroke="#2C3863" stroke-width="11" stroke-linecap="round" stroke-linejoin="round"/>
<path d="M188.123 160.242L174.627 160.447C174.627 160.447 169.485 175.51 157.245 177.27C149.361 178.391 143.159 175.173 140.1 170.039C138.357 167.08 137.666 163.629 138.138 160.236C139.485 149.861 155.253 136.852 169.375 140.678L169.893 140.823C183.602 144.884 188.123 160.242 188.123 160.242Z" stroke="#2C3863" stroke-width="11" stroke-linecap="round" stroke-linejoin="round"/>
<path d="M43.1963 6C55.991 16.1346 72.3534 24.2286 95 26" stroke="#2C3863" stroke-width="11" stroke-linecap="round" stroke-linejoin="round"/>
<path d="M32.1865 20.6836C40.107 26.974 48.8515 32.2282 61.5 36" stroke="#2C3863" stroke-width="11" stroke-linecap="round" stroke-linejoin="round"/>
<path d="M21.2739 35.7471C28.9233 41.6335 34.919 45.6494 44 49" stroke="#2C3863" stroke-width="11" stroke-linecap="round" stroke-linejoin="round"/>
<defs>
<linearGradient id="paint0_linear_1:1113" x1="109.5" y1="192.107" x2="109.5" y2="32" gradientUnits="userSpaceOnUse">
<stop stop-color="#ED4D5B"/>
<stop offset="1" stop-color="#F9923B"/>
</linearGradient>
<linearGradient id="paint1_linear_1:1113" x1="187" y1="118" x2="187" y2="78" gradientUnits="userSpaceOnUse">
<stop stop-color="#ED4D5B"/>
<stop offset="1" stop-color="#F9923B"/>
</linearGradient>
<linearGradient id="paint2_linear_1:1113" x1="167" y1="186.102" x2="167" y2="144.386" gradientUnits="userSpaceOnUse">
<stop stop-color="#ED4D5B"/>
<stop offset="1" stop-color="#F9923B"/>
</linearGradient>
<linearGradient id="paint3_linear_1:1113" x1="43.8982" y1="184.702" x2="43.8982" y2="140.735" gradientUnits="userSpaceOnUse">
<stop stop-color="#ED4D5B"/>
<stop offset="1" stop-color="#F9923B"/>
</linearGradient>
</defs>
</svg>
