<svg width="311" height="137" viewBox="0 0 311 137" fill="none" xmlns="http://www.w3.org/2000/svg">
<path d="M285.615 12.5214H25.2117C14.0491 12.5214 5 21.5705 5 32.7331V102.235C5 113.398 14.0491 122.447 25.2117 122.447H285.615C296.778 122.447 305.827 113.398 305.827 102.235V32.7331C305.827 21.5705 296.778 12.5214 285.615 12.5214Z" fill="#D7EDF9" stroke="#2C3863" stroke-width="9" stroke-miterlimit="10"/>
<path d="M68.5 2.5C68.5 3.60457 67.6046 4.5 66.5 4.5C65.3954 4.5 64.5 3.60457 64.5 2.5C64.5 1.39543 65.3954 0.5 66.5 0.5C67.6046 0.5 68.5 1.39543 68.5 2.5Z" fill="#2C3863" stroke="#2C3863"/>
<path d="M68.5 134.5C68.5 135.605 67.6046 136.5 66.5 136.5C65.3954 136.5 64.5 135.605 64.5 134.5C64.5 133.395 65.3954 132.5 66.5 132.5C67.6046 132.5 68.5 133.395 68.5 134.5Z" fill="#2C3863" stroke="#2C3863"/>
<path d="M66.3745 0.826607V136.173" stroke="#2C3863" stroke-miterlimit="10"/>
<path d="M60.7945 59.0098C62.1247 59.0098 63.1257 59.9866 63.1257 61.1004V75.905C63.1257 77.0188 62.1247 77.9957 60.7945 77.9957C59.4644 77.9957 58.4634 77.0188 58.4634 75.905V61.1004C58.4634 59.9866 59.4644 59.0098 60.7945 59.0098Z" fill="#2C3863" stroke="#2C3863"/>
<path d="M68.0794 56.0469C69.4096 56.0469 70.4106 57.0237 70.4106 58.1375V78.8628C70.4106 79.9766 69.4096 80.9535 68.0794 80.9535C66.7493 80.9535 65.7483 79.9766 65.7483 78.8628V58.1375C65.7483 57.0237 66.7493 56.0469 68.0794 56.0469Z" fill="#2C3863" stroke="#2C3863"/>
<path d="M75.3573 46.4233C76.6874 46.4233 77.6884 47.4002 77.6884 48.514V88.4858C77.6884 89.5996 76.6874 90.5765 75.3573 90.5765C74.0271 90.5765 73.0261 89.5996 73.0261 88.4858V48.514C73.0261 47.4002 74.0271 46.4233 75.3573 46.4233Z" fill="#2C3863" stroke="#2C3863"/>
<path d="M82.6358 56.7861C83.966 56.7861 84.967 57.763 84.967 58.8768V78.1233C84.967 79.2371 83.966 80.214 82.6358 80.214C81.3057 80.214 80.3047 79.2371 80.3047 78.1233V58.8768C80.3047 57.763 81.3057 56.7861 82.6358 56.7861Z" fill="#2C3863" stroke="#2C3863"/>
<path d="M89.9208 36.8003C91.2509 36.8003 92.2519 37.7772 92.2519 38.891V98.1093C92.2519 99.2231 91.2509 100.2 89.9208 100.2C88.5906 100.2 87.5896 99.2231 87.5896 98.1093V38.891C87.5896 37.7772 88.5906 36.8003 89.9208 36.8003Z" fill="#2C3863" stroke="#2C3863"/>
<path d="M97.1986 26.4375C98.5288 26.4375 99.5297 27.4144 99.5297 28.5282V108.472C99.5297 109.586 98.5288 110.562 97.1986 110.562C95.8684 110.562 94.8674 109.586 94.8674 108.472V28.5282C94.8674 27.4144 95.8684 26.4375 97.1986 26.4375Z" fill="#2C3863" stroke="#2C3863"/>
<path d="M104.477 44.9448C105.807 44.9448 106.808 45.9217 106.808 47.0355V89.9705C106.808 91.0843 105.807 92.0611 104.477 92.0611C103.147 92.0611 102.146 91.0843 102.146 89.9705V47.0355C102.146 45.9217 103.147 44.9448 104.477 44.9448Z" fill="#2C3863" stroke="#2C3863"/>
<path d="M111.762 49.3867C113.092 49.3867 114.093 50.3636 114.093 51.4774V85.5285C114.093 86.6423 113.092 87.6192 111.762 87.6192C110.432 87.6192 109.431 86.6423 109.431 85.5285V51.4774C109.431 50.3636 110.432 49.3867 111.762 49.3867Z" fill="#2C3863" stroke="#2C3863"/>
<path d="M119.04 56.0469C120.37 56.0469 121.371 57.0237 121.371 58.1375V78.8628C121.371 79.9766 120.37 80.9535 119.04 80.9535C117.71 80.9535 116.709 79.9766 116.709 78.8628V58.1375C116.709 57.0237 117.71 56.0469 119.04 56.0469Z" fill="#2C3863" stroke="#2C3863"/>
<path d="M126.318 61.9673C127.648 61.9673 128.649 62.9442 128.649 64.0579V72.9418C128.649 74.0556 127.648 75.0325 126.318 75.0325C124.988 75.0325 123.987 74.0556 123.987 72.9418V64.0579C123.987 62.9442 124.988 61.9673 126.318 61.9673Z" fill="#2C3863" stroke="#2C3863"/>
<path d="M236.758 44.9448C238.088 44.9448 239.089 45.9217 239.089 47.0355V89.9705C239.089 91.0843 238.088 92.0611 236.758 92.0611C235.428 92.0611 234.427 91.0843 234.427 89.9705V47.0355C234.427 45.9217 235.428 44.9448 236.758 44.9448Z" fill="#2C3863" stroke="#2C3863"/>
<path d="M244.043 49.3867C245.373 49.3867 246.374 50.3636 246.374 51.4774V85.5285C246.374 86.6423 245.373 87.6192 244.043 87.6192C242.712 87.6192 241.711 86.6423 241.711 85.5285V51.4774C241.711 50.3636 242.712 49.3867 244.043 49.3867Z" fill="#2C3863" stroke="#2C3863"/>
<path d="M251.321 56.0469C252.651 56.0469 253.652 57.0237 253.652 58.1375V78.8628C253.652 79.9766 252.651 80.9535 251.321 80.9535C249.991 80.9535 248.99 79.9766 248.99 78.8628V58.1375C248.99 57.0237 249.991 56.0469 251.321 56.0469Z" fill="#2C3863" stroke="#2C3863"/>
<path d="M258.6 61.9673C259.93 61.9673 260.931 62.9442 260.931 64.0579V72.9418C260.931 74.0556 259.93 75.0325 258.6 75.0325C257.27 75.0325 256.269 74.0556 256.269 72.9418V64.0579C256.269 62.9442 257.27 61.9673 258.6 61.9673Z" fill="#2C3863" stroke="#2C3863"/>
<path d="M133.597 52.3442C134.927 52.3442 135.928 53.3211 135.928 54.4349V82.5653C135.928 83.6791 134.927 84.656 133.597 84.656C132.267 84.656 131.266 83.6791 131.266 82.5653V54.4349C131.266 53.3211 132.267 52.3442 133.597 52.3442Z" fill="#2C3863" stroke="#2C3863"/>
<path d="M140.881 57.5254C142.212 57.5254 143.213 58.5023 143.213 59.6161V77.3838C143.213 78.4976 142.212 79.4745 140.881 79.4745C139.551 79.4745 138.55 78.4976 138.55 77.3838V59.6161C138.55 58.5023 139.551 57.5254 140.881 57.5254Z" fill="#2C3863" stroke="#2C3863"/>
<path d="M148.16 55.3071C149.49 55.3071 150.491 56.284 150.491 57.3978V79.6019C150.491 80.7156 149.49 81.6925 148.16 81.6925C146.83 81.6925 145.829 80.7156 145.829 79.6019V57.3978C145.829 56.284 146.83 55.3071 148.16 55.3071Z" fill="#2C3863" stroke="#2C3863"/>
<path d="M155.438 53.0894C156.768 53.0894 157.769 54.0662 157.769 55.18V81.826C157.769 82.9398 156.768 83.9167 155.438 83.9167C154.108 83.9167 153.107 82.9398 153.107 81.826V55.18C153.107 54.0662 154.108 53.0894 155.438 53.0894Z" fill="#2C3863" stroke="#2C3863"/>
<path d="M162.723 59.0098C164.053 59.0098 165.054 59.9866 165.054 61.1004V75.905C165.054 77.0188 164.053 77.9957 162.723 77.9957C161.392 77.9957 160.391 77.0188 160.391 75.905V61.1004C160.391 59.9866 161.392 59.0098 162.723 59.0098Z" fill="#2C3863" stroke="#2C3863"/>
<path d="M228.728 92.061C227.398 92.061 226.397 91.0842 226.397 89.9704V47.0354C226.397 45.9216 227.398 44.9447 228.728 44.9447C230.058 44.9447 231.059 45.9216 231.059 47.0354V89.9704C231.059 91.0842 230.058 92.061 228.728 92.061Z" fill="#2C3863" stroke="#2C3863"/>
<path d="M221.443 87.6191C220.113 87.6191 219.112 86.6423 219.112 85.5285V51.4774C219.112 50.3636 220.113 49.3867 221.443 49.3867C222.773 49.3867 223.774 50.3636 223.774 51.4774V85.5285C223.774 86.6423 222.773 87.6191 221.443 87.6191Z" fill="#2C3863" stroke="#2C3863"/>
<path d="M214.164 80.959C212.834 80.959 211.833 79.9821 211.833 78.8683V58.143C211.833 57.0292 212.834 56.0524 214.164 56.0524C215.495 56.0524 216.496 57.0292 216.496 58.143V78.8683C216.496 79.9821 215.495 80.959 214.164 80.959Z" fill="#2C3863" stroke="#2C3863"/>
<path d="M206.886 75.0381C205.556 75.0381 204.555 74.0612 204.555 72.9474V64.0635C204.555 62.9498 205.556 61.9729 206.886 61.9729C208.216 61.9729 209.217 62.9498 209.217 64.0635V72.9474C209.217 74.0612 208.216 75.0381 206.886 75.0381Z" fill="#2C3863" stroke="#2C3863"/>
<path d="M52.8314 75.0381C51.5013 75.0381 50.5003 74.0612 50.5003 72.9474V64.0635C50.5003 62.9498 51.5013 61.9729 52.8314 61.9729C54.1616 61.9729 55.1626 62.9498 55.1626 64.0635V72.9474C55.1626 74.0612 54.1616 75.0381 52.8314 75.0381Z" fill="#2C3863" stroke="#2C3863"/>
<path d="M199.601 84.6616C198.271 84.6616 197.27 83.6847 197.27 82.571V54.4405C197.27 53.3268 198.271 52.3499 199.601 52.3499C200.931 52.3499 201.932 53.3268 201.932 54.4405V82.571C201.932 83.6847 200.931 84.6616 199.601 84.6616Z" fill="#2C3863" stroke="#2C3863"/>
<path d="M192.323 79.48C190.993 79.48 189.992 78.5031 189.992 77.3893V59.6216C189.992 58.5078 190.993 57.5309 192.323 57.5309C193.654 57.5309 194.655 58.5078 194.655 59.6216V77.3893C194.655 78.5031 193.654 79.48 192.323 79.48Z" fill="#2C3863" stroke="#2C3863"/>
<path d="M185.039 81.6982C183.709 81.6982 182.708 80.7214 182.708 79.6076V57.4035C182.708 56.2897 183.709 55.3129 185.039 55.3129C186.369 55.3129 187.37 56.2897 187.37 57.4035V79.6076C187.37 80.7214 186.369 81.6982 185.039 81.6982Z" fill="#2C3863" stroke="#2C3863"/>
<path d="M177.761 83.9165C176.43 83.9165 175.429 82.9396 175.429 81.8258V55.1798C175.429 54.0661 176.43 53.0892 177.761 53.0892C179.091 53.0892 180.092 54.0661 180.092 55.1798V81.8258C180.092 82.9396 179.091 83.9165 177.761 83.9165Z" fill="#2C3863" stroke="#2C3863"/>
<path d="M170.482 77.9961C169.152 77.9961 168.151 77.0192 168.151 75.9054V61.1008C168.151 59.9871 169.152 59.0102 170.482 59.0102C171.812 59.0102 172.813 59.9871 172.813 61.1008V75.9054C172.813 77.0192 171.812 77.9961 170.482 77.9961Z" fill="#2C3863" stroke="#2C3863"/>
</svg>
