<svg width="22" height="22" viewBox="0 0 22 22" fill="none" xmlns="http://www.w3.org/2000/svg">
<rect width="22" height="22" rx="11" fill="#1DA1F2"/>
<path d="M16.3912 8.62244C16.3912 8.74275 16.3912 8.86306 16.3912 8.96619C16.3912 12.524 13.6756 16.6318 8.72556 16.6318C7.19587 16.6318 5.7865 16.1849 4.58337 15.4287C4.78962 15.4459 5.01306 15.4631 5.21931 15.4631C6.474 15.4631 7.64275 15.0334 8.57087 14.3115C7.38494 14.2943 6.38806 13.5037 6.0615 12.4381C6.23337 12.4724 6.38806 12.4896 6.57712 12.4896C6.81775 12.4896 7.05837 12.4552 7.28181 12.3865C6.04431 12.1459 5.11619 11.0631 5.11619 9.75681C5.11619 9.73962 5.11619 9.73962 5.11619 9.72244C5.47712 9.92869 5.88962 10.049 6.3365 10.0662C5.61462 9.58494 5.13337 8.75994 5.13337 7.81462C5.13337 7.31619 5.27087 6.85212 5.49431 6.45681C6.81775 8.08962 8.8115 9.15525 11.0459 9.27556C10.9943 9.0865 10.9771 8.86306 10.9771 8.65681C10.9771 7.1615 12.1802 5.95837 13.6756 5.95837C14.449 5.95837 15.1537 6.28494 15.6349 6.80056C16.2537 6.68025 16.8209 6.45681 17.3537 6.14744C17.1474 6.78337 16.7177 7.299 16.1677 7.64275C16.7177 7.574 17.2334 7.4365 17.7146 7.21306C17.3709 7.76306 16.924 8.24431 16.3912 8.62244Z" fill="white"/>
</svg>
