<svg width="148" height="123" viewBox="0 0 148 123" fill="none" xmlns="http://www.w3.org/2000/svg">
<g filter="url(#filter0_i_1:1052)">
<path d="M136.932 57.3469C131.892 55.6562 130.796 51.9729 129.24 44.0905C128.59 40.828 129.24 32.7074 123.589 20.475C117.937 8.24252 104.141 4.28146 104.141 4.28146C97.0064 1.92675 89.6017 0.489016 82.1047 0.00288685C81.7714 -0.0140256 81.4385 0.0435311 81.1303 0.171374C80.822 0.299217 80.5461 0.494134 80.3226 0.741959C80.0991 0.989785 79.9336 1.28429 79.8382 1.60408C79.7428 1.92386 79.7198 2.26089 79.7709 2.59067C80.5012 6.91688 87.9471 7.11533 95.2897 9.4491C108.665 13.6959 112.023 21.3561 113.42 24.3884C117.032 32.3264 116.23 41.1376 113.23 48.5516C109.261 58.4344 103.291 64.2371 98.8221 71.2146C90.0268 84.9632 89.7966 96.5606 92.7495 107.388C96.0041 119.335 107.681 122.208 114.182 121.351C131.535 119.057 137.448 110.317 138.107 109.785C138.766 109.253 140.116 109.5 144.196 106.84C148.276 104.181 148.57 99.2754 147.085 97.0051C145.601 94.7349 145.609 94.7349 145.045 92.7901C144.799 91.9248 146.26 89.2815 146.26 89.2815C146.26 89.2815 146.807 87.0985 146.26 86.1063C145.637 85.2571 144.855 84.5372 143.958 83.9868L145.085 82.6771C146.212 81.3673 147.069 79.3431 146.926 78.2635C146.783 77.184 147.133 76.4775 144.997 74.5962C143.626 73.2991 142.619 71.6651 142.076 69.8572C142.076 69.8572 144.966 65.6898 144.458 62.8877C143.664 58.6805 141.965 59.0457 136.932 57.3469Z" fill="url(#paint0_linear_1:1052)"/>
</g>
<path d="M37.5415 79.6368C36.1406 79.6712 34.7631 80.0041 33.5011 80.6132C32.197 81.2177 31.0301 82.0821 30.0719 83.1534L6.50399 33.4457C6.27215 32.956 6.13937 32.4253 6.11329 31.8841C6.08721 31.3429 6.16834 30.8019 6.35201 30.2922C6.53569 29.7825 6.81829 29.3141 7.18358 28.9139C7.54887 28.5138 7.98964 28.1898 8.48055 27.9605C9.02547 27.6907 9.62685 27.5546 10.2348 27.5636C11.0187 27.5654 11.7858 27.7903 12.4464 28.212C13.1071 28.6337 13.6341 29.2348 13.9657 29.945L37.5415 79.6368Z" fill="#333E63"/>
<path d="M65.681 104.657C65.4088 105.427 64.9135 106.099 64.2582 106.586C63.6028 107.074 62.8172 107.355 62.0014 107.394C61.1856 107.433 60.3766 107.229 59.6775 106.806C58.9785 106.384 58.4211 105.763 58.0764 105.022L16.6163 17.5378C16.3787 17.0463 16.2415 16.5122 16.2129 15.967C16.1843 15.4218 16.2647 14.8764 16.4496 14.3626C16.6233 13.8429 16.9007 13.3639 17.265 12.9545C17.6293 12.5452 18.073 12.2141 18.569 11.9812C19.1158 11.7175 19.7163 11.5844 20.3233 11.5923C21.1169 11.5866 21.8951 11.8106 22.5642 12.2374C23.2332 12.6642 23.7645 13.2755 24.0939 13.9975L65.5143 101.482C65.9806 102.479 66.0404 103.617 65.681 104.657Z" fill="#333E63"/>
<path d="M66.5143 66.0946C65.1137 66.1309 63.7366 66.4636 62.4739 67.0709C61.1527 67.6829 59.9759 68.5675 59.0209 69.6667L38.9616 27.2619C38.7218 26.7698 38.5819 26.2351 38.55 25.6887C38.5181 25.1422 38.5948 24.5948 38.7756 24.0782C38.9564 23.5615 39.2378 23.0858 39.6036 22.6785C39.9693 22.2713 40.4121 21.9405 40.9064 21.7053C41.4634 21.4385 42.0749 21.3053 42.6924 21.3163C43.1664 21.3228 43.6369 21.3976 44.0895 21.5386C45.1105 21.9195 45.9461 22.6783 46.4233 23.6581L66.5143 66.0946Z" fill="#333E63"/>
<path d="M85.7084 78.7716C84.7092 79.2449 83.5631 79.3026 82.5214 78.9321C81.4798 78.5616 80.6276 77.793 80.1518 76.795L51.1781 15.6724C50.9381 15.181 50.8022 14.6453 50.779 14.0989C50.7557 13.5525 50.8457 13.0072 51.0432 12.4973C51.2147 11.9776 51.4905 11.4984 51.8535 11.089C52.2166 10.6795 52.6593 10.3484 53.1547 10.1159C53.7059 9.8653 54.3035 9.7328 54.909 9.72689C55.3862 9.72689 55.8594 9.81294 56.3061 9.98091C56.8249 10.1541 57.3033 10.4305 57.7125 10.7933C58.1218 11.1562 58.4534 11.5981 58.6875 12.0924L87.6611 73.2547C87.8955 73.7451 88.0309 74.2768 88.0596 74.8196C88.0883 75.3624 88.0097 75.9055 87.8283 76.4179C87.647 76.9303 87.3664 77.4019 87.0026 77.8057C86.6389 78.2096 86.1991 78.5378 85.7084 78.7716Z" fill="#333E63"/>
<path d="M88.137 56.0688L72.8436 24.2149C72.3643 23.2229 72.2973 22.0815 72.6573 21.0402C73.0172 19.9989 73.7749 19.1425 74.7646 18.6584C75.3238 18.4063 75.9294 18.2739 76.5427 18.2694C77.3281 18.2687 78.0973 18.4925 78.7597 18.9144C79.4221 19.3363 79.9501 19.9388 80.2815 20.6508L95.5432 52.5443C95.7903 53.0345 95.937 53.5691 95.9747 54.1167C96.0123 54.6643 95.9401 55.2139 95.7624 55.7333C95.5847 56.2526 95.3049 56.7312 94.9396 57.1409C94.5743 57.5507 94.1308 57.8832 93.6352 58.1192C93.1395 58.3551 92.6018 58.4896 92.0534 58.5147C91.5051 58.5399 90.9572 58.4552 90.4421 58.2657C89.9269 58.0762 89.4548 57.7856 89.0535 57.4111C88.6522 57.0365 88.3298 56.5856 88.1053 56.0847L88.137 56.0688Z" fill="#333E63"/>
<path d="M96.9646 37.3115L93.1544 29.2386C92.6822 28.2436 92.6223 27.1023 92.9877 26.0634C93.1693 25.5489 93.4537 25.0767 93.8235 24.6755C94.1933 24.2743 94.6408 23.9525 95.1389 23.7296C95.6822 23.4527 96.2834 23.3085 96.8932 23.3089C97.6761 23.3144 98.4417 23.5409 99.1017 23.9622C99.7617 24.3834 100.289 24.9824 100.624 25.6903L104.442 33.7474C104.915 34.7389 104.974 35.8777 104.607 36.913C104.24 37.9484 103.477 38.7956 102.485 39.2682C101.494 39.7409 100.355 39.8002 99.3198 39.4333C98.2844 39.0663 97.4373 38.3031 96.9646 37.3115Z" fill="#333E63"/>
<path d="M24.0903 98.3554C23.094 98.8225 21.9548 98.8823 20.9151 98.5221C19.8936 98.1387 19.0564 97.3809 18.5734 96.4026L0.397117 59.1444C0.164296 58.6538 0.0309504 58.122 0.00477873 57.5796C-0.021393 57.0372 0.0601274 56.495 0.244634 55.9843C0.42914 55.4736 0.712978 55.0045 1.07976 54.604C1.44655 54.2036 1.88901 53.8798 2.38162 53.6513C2.91607 53.3802 3.50498 53.2337 4.10416 53.2227C4.89151 53.2269 5.6618 53.4525 6.32711 53.8736C6.99242 54.2946 7.52594 54.8943 7.86677 55.6041L26.043 92.8623C26.281 93.3537 26.4184 93.8878 26.447 94.433C26.4756 94.9783 26.395 95.5238 26.2097 96.0375C25.8311 97.0561 25.071 97.8873 24.0903 98.3554Z" fill="#333E63"/>
<path d="M81.8275 104.92C82.2197 101.568 81.639 98.1731 80.1547 95.1416L80.1447 95.1208L77.4123 89.2906L74.4622 82.9462L64.3686 61.7479C63.942 61.1208 63.3416 60.6312 62.6405 60.3394L62.6045 60.3238C62.0871 60.0907 61.5264 59.9693 60.959 59.9674L60.9492 59.9674C60.3648 59.9611 59.7866 60.0876 59.2581 60.3371C58.2766 60.8026 57.5177 61.6357 57.1455 62.6562C56.7739 63.6748 56.8174 64.7985 57.2663 65.7853L65.3509 82.8307L66.9909 86.3881L66.9941 86.3949L72.3936 97.9393C73.3361 99.9036 73.7735 102.072 73.666 104.248L73.6646 104.273C73.5249 106.329 72.8512 108.313 71.7099 110.029L71.6917 110.056C71.5152 110.308 71.3294 110.553 71.1349 110.79C69.9686 112.21 68.4884 113.347 66.8061 114.106C65.194 114.867 63.4366 115.269 61.6543 115.287L61.6289 115.287C61.2785 115.284 60.9285 115.263 60.5803 115.224C58.5103 115.027 56.5344 114.263 54.8687 113.018C53.1102 111.717 51.7057 109.991 50.7871 108.006L37.1421 78.8124L35.763 75.8426C35.6822 75.728 35.6228 75.6107 35.5804 75.4984C35.1715 74.7595 34.5266 74.1775 33.7473 73.8467L33.7217 73.8355C33.2055 73.6037 32.6467 73.4821 32.081 73.4784C31.4231 73.4845 30.7763 73.6487 30.1951 73.9572C29.6116 74.267 29.1115 74.7132 28.7373 75.2577C28.3632 75.8022 28.1261 76.4291 28.0461 77.0849C27.9662 77.7407 28.0458 78.4062 28.2782 79.0246L28.4792 79.5594L28.4699 79.5794L29.7368 82.3231L29.7402 82.3305L43.711 112.169C45.0884 115.254 47.3046 117.89 50.1075 119.777C52.8535 121.598 56.0405 122.644 59.3313 122.803H60.4545C63.6913 122.765 66.8833 122.012 69.7948 120.598L69.8366 120.577C73.1444 119.108 76.0284 116.829 78.2211 113.949C80.2156 111.323 81.4616 108.205 81.8266 104.928L81.8275 104.92Z" fill="#333E63"/>
<defs>
<filter id="filter0_i_1:1052" x="79.7444" y="0" width="69.1598" height="121.491" filterUnits="userSpaceOnUse" color-interpolation-filters="sRGB">
<feFlood flood-opacity="0" result="BackgroundImageFix"/>
<feBlend mode="normal" in="SourceGraphic" in2="BackgroundImageFix" result="shape"/>
<feColorMatrix in="SourceAlpha" type="matrix" values="0 0 0 0 0 0 0 0 0 0 0 0 0 0 0 0 0 0 127 0" result="hardAlpha"/>
<feOffset dx="1"/>
<feGaussianBlur stdDeviation="3.5"/>
<feComposite in2="hardAlpha" operator="arithmetic" k2="-1" k3="1"/>
<feColorMatrix type="matrix" values="0 0 0 0 0.976471 0 0 0 0 0.231373 0 0 0 0 0.231373 0 0 0 0.5 0"/>
<feBlend mode="normal" in2="shape" result="effect1_innerShadow_1:1052"/>
</filter>
<linearGradient id="paint0_linear_1:1052" x1="80.0002" y1="137.303" x2="137.5" y2="60.8027" gradientUnits="userSpaceOnUse">
<stop stop-color="#ED4D5B"/>
<stop offset="1" stop-color="#F9923B"/>
</linearGradient>
</defs>
</svg>
